<svg xmlns="http://www.w3.org/2000/svg" xmlns:xlink="http://www.w3.org/1999/xlink" width="256" zoomAndPan="magnify" viewBox="0 0 192 191.999996" height="256" preserveAspectRatio="xMidYMid meet" version="1.0"><defs><g/></defs><g fill="#7ed957" fill-opacity="1"><g transform="translate(22.730664, 157.520905)"><g><path d="M -21.09375 -47.234375 L -6.96875 -54.8125 C -2.707031 -57.09375 1.175781 -58 4.6875 -57.53125 C 8.195312 -57.070312 11.039062 -54.804688 13.21875 -50.734375 C 15.664062 -46.171875 15.519531 -41.910156 12.78125 -37.953125 C 19.851562 -40.265625 25.132812 -38.171875 28.625 -31.671875 C 30.675781 -27.847656 31 -24.070312 29.59375 -20.34375 C 28.195312 -16.613281 25.1875 -13.507812 20.5625 -11.03125 L 3.296875 -1.765625 Z M -1.1875 -34.984375 L -0.34375 -35.4375 C 1.96875 -36.675781 3.472656 -38.003906 4.171875 -39.421875 C 4.878906 -40.835938 4.738281 -42.46875 3.75 -44.3125 C 2.101562 -47.394531 -1.007812 -47.707031 -5.59375 -45.25 L -6.4375 -44.796875 Z M 9.375 -15.3125 L 12.640625 -17.0625 C 17.703125 -19.78125 19.328125 -22.828125 17.515625 -26.203125 C 16.421875 -28.234375 15.003906 -29.347656 13.265625 -29.546875 C 11.535156 -29.753906 9.40625 -29.175781 6.875 -27.8125 L 3.609375 -26.0625 Z M 9.375 -15.3125 "/></g></g></g><g fill="#7ed957" fill-opacity="1"><g transform="translate(56.676315, 139.307183)"><g><path d="M -2.671875 -34.96875 L 4.546875 -21.53125 C 6.046875 -18.726562 7.535156 -16.96875 9.015625 -16.25 C 10.492188 -15.539062 12.242188 -15.726562 14.265625 -16.8125 C 16.285156 -17.894531 17.398438 -19.25 17.609375 -20.875 C 17.828125 -22.5 17.1875 -24.710938 15.6875 -27.515625 L 8.46875 -40.953125 L 18.21875 -46.1875 L 26.71875 -30.375 C 29.238281 -25.664062 29.832031 -21.617188 28.5 -18.234375 C 27.164062 -14.847656 23.832031 -11.722656 18.5 -8.859375 C 13.175781 -6.003906 8.738281 -4.957031 5.1875 -5.71875 C 1.632812 -6.488281 -1.398438 -9.226562 -3.921875 -13.9375 L -12.421875 -29.75 Z M -2.671875 -34.96875 "/></g></g></g><g fill="#7ed957" fill-opacity="1"><g transform="translate(90.070902, 121.389138)"><g><path d="M 3.34375 -6.296875 C -0.84375 -7.765625 -4.054688 -10.59375 -6.296875 -14.78125 C -8.546875 -18.96875 -9.125 -23.222656 -8.03125 -27.546875 C -6.945312 -31.867188 -4.363281 -35.125 -0.28125 -37.3125 C 3.457031 -39.320312 7.171875 -39.800781 10.859375 -38.75 L -0.84375 -60.578125 L 8.90625 -65.8125 L 34.328125 -18.421875 L 24.6875 -13.25 L 22.96875 -16.4375 L 22.859375 -16.375 C 21.867188 -12.394531 19.503906 -9.398438 15.765625 -7.390625 C 11.679688 -5.203125 7.539062 -4.835938 3.34375 -6.296875 Z M 3.390625 -26.15625 C 2.785156 -24.226562 3.003906 -22.289062 4.046875 -20.34375 C 5.097656 -18.394531 6.5625 -17.128906 8.4375 -16.546875 C 10.3125 -15.960938 12.242188 -16.203125 14.234375 -17.265625 C 16.140625 -18.296875 17.367188 -19.765625 17.921875 -21.671875 C 18.484375 -23.585938 18.25 -25.503906 17.21875 -27.421875 C 16.175781 -29.367188 14.6875 -30.625 12.75 -31.1875 C 10.820312 -31.757812 8.941406 -31.550781 7.109375 -30.5625 C 5.234375 -29.5625 3.992188 -28.09375 3.390625 -26.15625 Z M 3.390625 -26.15625 "/></g></g></g><g fill="#7ed957" fill-opacity="1"><g transform="translate(124.953369, 102.672763)"><g><path d="M 5.75 5.84375 L 11.640625 -2.34375 C 14.410156 -0.71875 17.617188 -0.882812 21.265625 -2.84375 C 22.953125 -3.75 24.226562 -5.128906 25.09375 -6.984375 C 25.96875 -8.835938 25.804688 -10.882812 24.609375 -13.125 L 23.484375 -15.21875 C 22.773438 -12.382812 20.203125 -9.773438 15.765625 -7.390625 C 11.679688 -5.203125 7.539062 -4.835938 3.34375 -6.296875 C -0.84375 -7.765625 -4.054688 -10.59375 -6.296875 -14.78125 C -8.546875 -18.96875 -9.125 -23.222656 -8.03125 -27.546875 C -6.945312 -31.867188 -4.363281 -35.125 -0.28125 -37.3125 C 3.351562 -39.257812 6.976562 -39.765625 10.59375 -38.828125 L 10.765625 -38.921875 L 9.40625 -41.453125 L 19.15625 -46.6875 L 34.734375 -17.65625 C 37.203125 -13.0625 37.582031 -8.695312 35.875 -4.5625 C 34.175781 -0.425781 30.828125 2.976562 25.828125 5.65625 C 17.742188 10 11.050781 10.0625 5.75 5.84375 Z M 3.390625 -26.15625 C 2.785156 -24.226562 3.003906 -22.289062 4.046875 -20.34375 C 5.097656 -18.394531 6.5625 -17.128906 8.4375 -16.546875 C 10.3125 -15.960938 12.242188 -16.203125 14.234375 -17.265625 C 16.140625 -18.296875 17.367188 -19.765625 17.921875 -21.671875 C 18.484375 -23.585938 18.25 -25.503906 17.21875 -27.421875 C 16.175781 -29.367188 14.6875 -30.625 12.75 -31.1875 C 10.820312 -31.757812 8.941406 -31.550781 7.109375 -30.5625 C 5.234375 -29.5625 3.992188 -28.09375 3.390625 -26.15625 Z M 3.390625 -26.15625 "/></g></g></g><g fill="#ffde59" fill-opacity="1"><g transform="translate(159.833849, 83.957454)"><g><path d="M 4.921875 -61.203125 L 9.796875 -52.09375 L -5.859375 -43.6875 L -1 -34.65625 L 14 -42.703125 L 18.875 -33.625 L 3.875 -25.578125 L 8.78125 -16.421875 L 24.4375 -24.828125 L 29.3125 -15.734375 L 3.296875 -1.765625 L -21.09375 -47.234375 Z M 4.921875 -61.203125 "/></g></g></g><g fill="#000000" fill-opacity="1"><g transform="translate(189.039386, 68.287066)"><g/></g></g></svg>